# xmcd
#
# Track frame offsets:
#	150
#	8164
#	20528
#	30521
#	42079
#	53599
#	63962
#	76676
#	88442
#	99275
#	110581
#	120684
#	133932
#	144794
#	154951
#	165084
#	175864
#	189720
#	200313
#	209662
#
# Disc length: 2962 seconds
# Revision: 0
# Processed by: cddbd v1.5.2PL0 Copyright (c) Steve Scherf et al.
# Submitted via: dBpowerAMP V12.0
#
DISCID=030b9014
DTITLE=Various Artist - The Best of Country CD2
DYEAR=2015
DGENRE=Country
TTITLE0=Johnny Cash  - Five Feet High And Rising - Johnny Cash
TTITLE1=Patsy Cline  - Crazy - Patsy Cline
TTITLE2=Glen Campbell  - Valley of Death - Glen Campbell
TTITLE3=Ray Price - Crazy Arms - Ray Price 
TTITLE4=Don Gibson - Sea of Heartbreak - Don Gibson
TTITLE5=Chet Atkins - Mister Sandman
TTITLE6=Various Artist - I'm Movin' on - Hank Snow 
TTITLE7=Various Artist - Angel on Paper - Dottie West
TTITLE8=Various Artist - We've Got Things to do - June Carter
TTITLE9=Various Artist - A White Sport Coat And a Pink Camation - Marty Robbins
TTITLE10=Various Artist - Touch me - Willie Helson
TTITLE11=Various Artist - Country Boy - Little Jimmy Dickens 
TTITLE12=Various Artist - Stumpy Joe - Hank Locklin 
TTITLE13=Various Artist - I Heart The Jukebos Playing - Kitty Wells
TTITLE14=Various Artist - Rub-a-Dub-Dub - Hank Thompson
TTITLE15=Various Artist - Ny Mane is Mud - James O'gwynn
TTITLE16=Various Artist - Long Black Veil - Lefty Frizzell 
TTITLE17=Various Artist - Diggy Liggy lo - Jimmy Newman
TTITLE18=Various Artist - Half Breed - Ricky Nelson
TTITLE19=Various Artist - What am I Worth - George Jones 
EXTD=
EXTT0=
EXTT1=
EXTT2=
EXTT3=
EXTT4=
EXTT5=
EXTT6=
EXTT7=
EXTT8=
EXTT9=
EXTT10=
EXTT11=
EXTT12=
EXTT13=
EXTT14=
EXTT15=
EXTT16=
EXTT17=
EXTT18=
EXTT19=
PLAYORDER=
